<svg width="16" height="16" viewBox="0 0 16 16" fill="none" xmlns="http://www.w3.org/2000/svg">
<path d="M14.8026 1.12108L8.79884 7.12486C8.55309 7.37061 8.16324 7.37061 7.93831 7.12486L1.93371 1.12108C1.68796 0.87533 1.2981 0.87533 1.07317 1.12108C0.827424 1.36683 0.827424 1.75669 1.07317 1.98161L7.07777 7.98621C7.32352 8.23196 7.32352 8.62182 7.07777 8.84675L1.05248 14.8712C0.806727 15.117 0.806727 15.5068 1.05248 15.7318C1.29823 15.9775 1.68808 15.9775 1.91301 15.7318L7.91761 9.72716C8.16336 9.48141 8.55321 9.48141 8.77814 9.72716L14.8026 15.7525C15.0484 15.9982 15.4382 15.9982 15.6632 15.7525C15.9089 15.5067 15.9089 15.1168 15.6632 14.8919L9.67946 8.86662C9.43371 8.62087 9.43371 8.23102 9.67946 8.00609L15.6841 2.00149C15.9298 1.75574 15.9298 1.36589 15.6841 1.14096C15.4383 0.895208 15.0493 0.895208 14.8027 1.12095L14.8026 1.12108Z" fill="white"/>
</svg>
