<svg width="12" height="12" viewBox="0 0 12 12" fill="none" xmlns="http://www.w3.org/2000/svg">
<path d="M0.820083 7.21219C-0.273361 8.30564 -0.273361 10.0864 0.820083 11.1799C1.91353 12.2734 3.69428 12.2733 4.78778 11.1799L6.99178 8.97589C8.08523 7.88245 8.08523 6.1017 6.99178 5.00819C6.90472 4.91809 6.78479 4.86694 6.65998 4.86634C6.53456 4.86573 6.41462 4.91504 6.32634 5.00332C6.23746 5.0916 6.18814 5.21214 6.18936 5.33695C6.18997 5.46237 6.24111 5.5817 6.33061 5.66937C7.06911 6.40788 7.06911 7.57615 6.33061 8.31414L4.1266 10.5181C3.3881 11.2566 2.21983 11.2566 1.48183 10.5181C0.743329 9.77963 0.743329 8.61136 1.48183 7.87337L3.57564 5.77956C3.66514 5.69189 3.71628 5.57256 3.71689 5.44714C3.71811 5.32234 3.66879 5.20179 3.58051 5.11351C3.49163 5.02463 3.37169 4.97531 3.24627 4.97653C3.12086 4.97714 3.00153 5.02828 2.91447 5.11838L0.820658 7.21219H0.820083ZM5.00817 3.02411C3.91472 4.11755 3.91472 5.8983 5.00817 6.99181C5.09523 7.08131 5.21516 7.13245 5.33998 7.13306C5.46539 7.13427 5.58533 7.08496 5.67361 6.99607C5.7625 6.90779 5.81181 6.78786 5.81059 6.66244C5.80999 6.53702 5.75884 6.41769 5.66935 6.33063C4.93084 5.59212 4.93084 4.42385 5.66935 3.68586L7.87335 1.48186C8.61185 0.743352 9.78012 0.743352 10.5181 1.48186C11.2566 2.22036 11.2566 3.38864 10.5181 4.12663L8.42431 6.22044C8.33481 6.3075 8.28367 6.42683 8.28306 6.55225C8.28245 6.67705 8.33177 6.7976 8.42005 6.88588C8.50833 6.97476 8.62887 7.02408 8.75368 7.02286C8.8791 7.02225 8.99842 6.97111 9.08549 6.88162L11.1793 4.78781C12.2727 3.69436 12.2727 1.91361 11.1793 0.820106C10.0859 -0.2734 8.3051 -0.273338 7.2116 0.820106L5.00759 3.02411H5.00817Z" fill="#595959"/>
</svg>
